<svg width="18" height="17" viewBox="0 0 18 17" fill="none" xmlns="http://www.w3.org/2000/svg">
<rect width="18" height="16.9412" fill="white"/>
<path d="M2.63591 14.8345C2.22242 14.4211 2.22241 13.7506 2.63591 13.3371L13.8664 2.10662C14.2799 1.69312 14.9503 1.69313 15.3638 2.10663C15.7773 2.52012 15.7773 3.19052 15.3638 3.60403L4.13331 14.8345C3.71981 15.248 3.0494 15.248 2.63591 14.8345Z" fill="#222222"/>
<path d="M15.3639 14.8344C14.9504 15.2479 14.28 15.2479 13.8665 14.8344L2.63601 3.60387C2.22251 3.19036 2.22252 2.51996 2.63601 2.10647C3.04951 1.69298 3.71991 1.69296 4.13341 2.10647L15.3639 13.337C15.7774 13.7505 15.7774 14.4209 15.3639 14.8344Z" fill="#222222"/>
</svg>
