<svg width="18" height="18" fill="none" xmlns="http://www.w3.org/2000/svg"><g clip-path="url(#clip0_15_227)" fill="#fff"><path d="M17.995 18H18v-6.602c0-3.23-.695-5.717-4.47-5.717-1.816 0-3.034.996-3.531 1.94h-.053V5.982h-3.58V18h3.728v-5.95c0-1.567.297-3.082 2.238-3.082 1.911 0 1.94 1.788 1.94 3.182V18h3.723zM.297 5.982h3.732V18H.297V5.982zM2.162 0A2.162 2.162 0 000 2.162c0 1.193.968 2.181 2.162 2.181 1.193 0 2.161-.988 2.161-2.181A2.163 2.163 0 002.161 0z"/></g><defs><clipPath id="clip0_15_227"><path fill="#fff" d="M0 0h18v18H0z"/></clipPath></defs></svg>