<svg width="24" height="24" fill="none" xmlns="http://www.w3.org/2000/svg"><g clip-path="url(#clip0_51_656)"><path opacity=".4" d="M.86 13.073a10.776 10.776 0 011.53-5.552 11.16 11.16 0 0019.116.977 10.79 10.79 0 011.011 4.575c0 5.98-4.848 10.829-10.828 10.829-5.98 0-10.83-4.848-10.83-10.829z" fill="#FF5050"/><path d="M12 24a12 12 0 116.584-22.035 1.17 1.17 0 11-1.287 1.958A9.613 9.613 0 0012 2.343c-5.323 0-9.656 4.332-9.656 9.657S6.676 21.656 12 21.656c5.325 0 9.656-4.331 9.656-9.656a9.647 9.647 0 00-.405-2.778 1.172 1.172 0 012.245-.674A12.003 12.003 0 0112 24z" fill="#0D0D0D"/><path d="M10.244 17.734a1.637 1.637 0 01-1.166-.484L4.89 13.064a1.172 1.172 0 111.657-1.658l3.696 3.696 7.21-7.212a1.172 1.172 0 111.658 1.657L11.41 17.25a1.64 1.64 0 01-1.167.484z" fill="#0D0D0D"/></g><defs><clipPath id="clip0_51_656"><path fill="#fff" d="M0 0h24v24H0z"/></clipPath></defs></svg>