<svg width="22" height="22" viewBox="0 0 22 22" fill="none" xmlns="http://www.w3.org/2000/svg">
<path d="M19.9007 18.5992L17.3065 16.0142C18.7129 14.2768 19.3989 12.066 19.2232 9.83766C19.0475 7.60934 18.0234 5.5334 16.3622 4.0379C14.7009 2.5424 12.5291 1.74138 10.2947 1.8C8.0602 1.85863 5.93341 2.77243 4.35286 4.35298C2.77231 5.93353 1.8585 8.06032 1.79988 10.2948C1.74126 12.5293 2.54228 14.701 4.03778 16.3623C5.53328 18.0235 7.60922 19.0476 9.83754 19.2233C12.0659 19.399 14.2767 18.713 16.014 17.3067L18.599 19.9008C18.6843 19.9868 18.7856 20.0549 18.8974 20.1015C19.0091 20.148 19.1289 20.172 19.2499 20.172C19.3709 20.172 19.4907 20.148 19.6024 20.1015C19.7141 20.0549 19.8155 19.9868 19.9007 19.9008C19.9866 19.8156 20.0548 19.7142 20.1014 19.6025C20.1479 19.4908 20.1719 19.371 20.1719 19.25C20.1719 19.129 20.1479 19.0092 20.1014 18.8975C20.0548 18.7858 19.9866 18.6844 19.9007 18.5992V18.5992ZM3.66655 10.5417C3.66655 9.18192 4.06976 7.85271 4.82519 6.72212C5.58063 5.59154 6.65436 4.71035 7.9106 4.19C9.16684 3.66964 10.5492 3.5335 11.8828 3.79877C13.2164 4.06404 14.4414 4.71882 15.4029 5.68031C16.3644 6.6418 17.0192 7.8668 17.2844 9.20042C17.5497 10.534 17.4136 11.9164 16.8932 13.1726C16.3729 14.4289 15.4917 15.5026 14.3611 16.258C13.2305 17.0135 11.9013 17.4167 10.5415 17.4167C8.71818 17.4167 6.9695 16.6923 5.68019 15.403C4.39087 14.1137 3.66655 12.365 3.66655 10.5417V10.5417Z" fill="black"/>
</svg>
