<?xml version="1.0" encoding="utf-8"?><svg viewBox="0 0 128 128" xmlns="http://www.w3.org/2000/svg" xmlns:xlink="http://www.w3.org/1999/xlink"><style>:root>svg{display:none}:root>svg:target{display:block}</style><svg viewBox="0 0 22 22" id="cart" xmlns="http://www.w3.org/2000/svg"><path d="M19.422 5.156h-2.619A5.852 5.852 0 0011 0a5.852 5.852 0 00-5.803 5.156H2.578a.86.86 0 00-.86.86V21.14a.86.86 0 00.86.859h16.844a.86.86 0 00.86-.86V6.017a.86.86 0 00-.86-.86zM11 1.72a4.13 4.13 0 014.067 3.437H6.933A4.131 4.131 0 0111 1.72zm7.563 18.562H3.438V6.875h1.718v2.578a.86.86 0 101.719 0V6.875h8.25v2.578a.86.86 0 101.719 0V6.875h1.718v13.406z"/></svg><svg viewBox="0 0 128 128" id="close" xmlns="http://www.w3.org/2000/svg"><path d="M84.815 43.399a1.998 1.998 0 00-2.828 0L64.032 61.356 46.077 43.399a2 2 0 10-2.828 2.828l17.955 17.957-17.955 17.957a2 2 0 102.828 2.828l17.955-17.956 17.955 17.956c.391.39.902.585 1.414.585s1.023-.195 1.414-.585a2 2 0 000-2.828L66.86 64.184l17.955-17.957a1.998 1.998 0 000-2.828zM64.032 14.054c-27.642 0-50.129 22.487-50.129 50.127.002 27.643 22.491 50.131 50.133 50.131 27.639 0 50.125-22.489 50.125-50.131 0-27.64-22.487-50.127-50.129-50.127zm.004 96.259h-.002c-25.435 0-46.129-20.695-46.131-46.131 0-25.435 20.693-46.127 46.129-46.127s46.129 20.693 46.129 46.127c0 25.435-20.691 46.131-46.125 46.131z"/></svg><svg viewBox="0 0 26 26" id="decrease" xmlns="http://www.w3.org/2000/svg"><path d="M13 26a13 13 0 110-26 13 13 0 010 26zm0-24a11 11 0 100 22 11 11 0 000-22z"/><path d="M19 14H7a1 1 0 010-2h12a1 1 0 010 2z"/></svg><svg viewBox="0 0 26 26" id="increase" xmlns="http://www.w3.org/2000/svg"><path d="M13 26a13 13 0 110-26 13 13 0 010 26zm0-24a11 11 0 100 22 11 11 0 000-22z"/><path d="M13 20a1 1 0 01-1-1V7a1 1 0 012 0v12a1 1 0 01-1 1z"/><path d="M19 14H7a1 1 0 010-2h12a1 1 0 010 2z"/></svg><svg viewBox="0 0 24 24" id="offer" xmlns="http://www.w3.org/2000/svg"><g clip-path="url(#ea)"><path opacity=".4" d="M.86 13.073a10.776 10.776 0 011.53-5.552 11.16 11.16 0 0019.116.977 10.79 10.79 0 011.011 4.575c0 5.98-4.848 10.829-10.828 10.829-5.98 0-10.83-4.848-10.83-10.829z"/><path d="M12 24a12 12 0 116.584-22.035 1.17 1.17 0 11-1.287 1.958A9.613 9.613 0 0012 2.343c-5.323 0-9.656 4.332-9.656 9.657S6.676 21.656 12 21.656c5.325 0 9.656-4.331 9.656-9.656a9.647 9.647 0 00-.405-2.778 1.172 1.172 0 012.245-.674A12.003 12.003 0 0112 24z"/><path d="M10.244 17.734a1.637 1.637 0 01-1.166-.484L4.89 13.064a1.172 1.172 0 111.657-1.658l3.696 3.696 7.21-7.212a1.172 1.172 0 111.658 1.657L11.41 17.25a1.64 1.64 0 01-1.167.484z"/></g><defs><clipPath id="ea"><path d="M0 0h24v24H0z"/></clipPath></defs></svg><svg viewBox="0 0 22 22" id="search" xmlns="http://www.w3.org/2000/svg"><path d="M19.9 18.6l-2.593-2.586a8.727 8.727 0 10-1.293 1.293l2.585 2.594a.917.917 0 001.302 0 .918.918 0 000-1.302zM3.668 10.541a6.875 6.875 0 1113.75 0 6.875 6.875 0 01-13.75 0z"/></svg></svg>