<?xml version="1.0" encoding="utf-8"?><svg viewBox="0 0 22 22" xmlns="http://www.w3.org/2000/svg" xmlns:xlink="http://www.w3.org/1999/xlink"><style>:root>svg{display:none}:root>svg:target{display:block}</style><svg viewBox="0 0 22 22" id="cart" xmlns="http://www.w3.org/2000/svg"><path d="M19.422 5.156h-2.619A5.852 5.852 0 0011 0a5.852 5.852 0 00-5.803 5.156H2.578a.86.86 0 00-.86.86V21.14a.86.86 0 00.86.859h16.844a.86.86 0 00.86-.86V6.017a.86.86 0 00-.86-.86zM11 1.72a4.13 4.13 0 014.067 3.437H6.933A4.131 4.131 0 0111 1.72zm7.563 18.562H3.438V6.875h1.718v2.578a.86.86 0 101.719 0V6.875h8.25v2.578a.86.86 0 101.719 0V6.875h1.718v13.406z"/></svg><svg viewBox="0 0 22 22" id="search" xmlns="http://www.w3.org/2000/svg"><path d="M19.9 18.6l-2.593-2.586a8.727 8.727 0 10-1.293 1.293l2.585 2.594a.917.917 0 001.302 0 .918.918 0 000-1.302zM3.668 10.541a6.875 6.875 0 1113.75 0 6.875 6.875 0 01-13.75 0z"/></svg></svg>