<?xml version="1.0" encoding="utf-8"?><svg viewBox="0 0 128 128" xmlns="http://www.w3.org/2000/svg" xmlns:xlink="http://www.w3.org/1999/xlink"><style>:root>svg{display:none}:root>svg:target{display:block}</style><svg viewBox="0 0 22 22" id="cart" xmlns="http://www.w3.org/2000/svg"><path d="M19.422 5.156h-2.619A5.852 5.852 0 0011 0a5.852 5.852 0 00-5.803 5.156H2.578a.86.86 0 00-.86.86V21.14a.86.86 0 00.86.859h16.844a.86.86 0 00.86-.86V6.017a.86.86 0 00-.86-.86zM11 1.72a4.13 4.13 0 014.067 3.437H6.933A4.131 4.131 0 0111 1.72zm7.563 18.562H3.438V6.875h1.718v2.578a.86.86 0 101.719 0V6.875h8.25v2.578a.86.86 0 101.719 0V6.875h1.718v13.406z"/></svg><svg viewBox="0 0 128 128" id="close" xmlns="http://www.w3.org/2000/svg"><path d="M84.815 43.399a1.998 1.998 0 00-2.828 0L64.032 61.356 46.077 43.399a2 2 0 10-2.828 2.828l17.955 17.957-17.955 17.957a2 2 0 102.828 2.828l17.955-17.956 17.955 17.956c.391.39.902.585 1.414.585s1.023-.195 1.414-.585a2 2 0 000-2.828L66.86 64.184l17.955-17.957a1.998 1.998 0 000-2.828zM64.032 14.054c-27.642 0-50.129 22.487-50.129 50.127.002 27.643 22.491 50.131 50.133 50.131 27.639 0 50.125-22.489 50.125-50.131 0-27.64-22.487-50.127-50.129-50.127zm.004 96.259h-.002c-25.435 0-46.129-20.695-46.131-46.131 0-25.435 20.693-46.127 46.129-46.127s46.129 20.693 46.129 46.127c0 25.435-20.691 46.131-46.125 46.131z"/></svg><svg viewBox="0 0 26 26" id="decrease" xmlns="http://www.w3.org/2000/svg"><path d="M13 26a13 13 0 110-26 13 13 0 010 26zm0-24a11 11 0 100 22 11 11 0 000-22z"/><path d="M19 14H7a1 1 0 010-2h12a1 1 0 010 2z"/></svg><svg viewBox="0 0 18 18" id="facebook" xmlns="http://www.w3.org/2000/svg"><path d="M11.998 2.989h1.643V.127A21.22 21.22 0 0011.247 0c-5.2 0-3.785 5.888-3.992 6.75H4.64v3.2h2.615V18h3.205V9.95h2.509l.398-3.2H10.46c.141-2.117-.57-3.761 1.539-3.761z"/></svg><svg viewBox="0 0 26 26" id="increase" xmlns="http://www.w3.org/2000/svg"><path d="M13 26a13 13 0 110-26 13 13 0 010 26zm0-24a11 11 0 100 22 11 11 0 000-22z"/><path d="M13 20a1 1 0 01-1-1V7a1 1 0 012 0v12a1 1 0 01-1 1z"/><path d="M19 14H7a1 1 0 010-2h12a1 1 0 010 2z"/></svg><svg viewBox="0 0 18 18" id="instagram" xmlns="http://www.w3.org/2000/svg"><path d="M12.375 0h-6.75A5.626 5.626 0 000 5.625v6.75A5.626 5.626 0 005.625 18h6.75A5.626 5.626 0 0018 12.375v-6.75A5.626 5.626 0 0012.375 0zm3.938 12.375a3.942 3.942 0 01-3.938 3.938h-6.75a3.942 3.942 0 01-3.938-3.938v-6.75a3.942 3.942 0 013.938-3.938h6.75a3.942 3.942 0 013.938 3.938v6.75z"/><path d="M9 4.5a4.5 4.5 0 100 9 4.5 4.5 0 000-9zm0 7.313A2.816 2.816 0 016.187 9 2.816 2.816 0 019 6.187 2.816 2.816 0 0111.813 9 2.816 2.816 0 019 11.813zm4.837-7.051a.6.6 0 100-1.2.6.6 0 000 1.2z"/></svg><svg viewBox="0 0 18 18" id="linkedin" xmlns="http://www.w3.org/2000/svg"><g clip-path="url(#ga)"><path d="M17.995 18H18v-6.602c0-3.23-.695-5.717-4.47-5.717-1.816 0-3.034.996-3.531 1.94h-.053V5.982h-3.58V18h3.728v-5.95c0-1.567.297-3.082 2.238-3.082 1.911 0 1.94 1.788 1.94 3.182V18h3.723zM.297 5.982h3.732V18H.297V5.982zM2.162 0A2.162 2.162 0 000 2.162c0 1.193.968 2.181 2.162 2.181 1.193 0 2.161-.988 2.161-2.181A2.163 2.163 0 002.161 0z"/></g><defs><clipPath id="ga"><path d="M0 0h18v18H0z"/></clipPath></defs></svg><svg viewBox="0 0 24 24" id="offer" xmlns="http://www.w3.org/2000/svg"><g clip-path="url(#ha)"><path opacity=".4" d="M.86 13.073a10.776 10.776 0 011.53-5.552 11.16 11.16 0 0019.116.977 10.79 10.79 0 011.011 4.575c0 5.98-4.848 10.829-10.828 10.829-5.98 0-10.83-4.848-10.83-10.829z"/><path d="M12 24a12 12 0 116.584-22.035 1.17 1.17 0 11-1.287 1.958A9.613 9.613 0 0012 2.343c-5.323 0-9.656 4.332-9.656 9.657S6.676 21.656 12 21.656c5.325 0 9.656-4.331 9.656-9.656a9.647 9.647 0 00-.405-2.778 1.172 1.172 0 012.245-.674A12.003 12.003 0 0112 24z"/><path d="M10.244 17.734a1.637 1.637 0 01-1.166-.484L4.89 13.064a1.172 1.172 0 111.657-1.658l3.696 3.696 7.21-7.212a1.172 1.172 0 111.658 1.657L11.41 17.25a1.64 1.64 0 01-1.167.484z"/></g><defs><clipPath id="ha"><path d="M0 0h24v24H0z"/></clipPath></defs></svg><svg viewBox="0 0 22 22" id="search" xmlns="http://www.w3.org/2000/svg"><path d="M19.9 18.6l-2.593-2.586a8.727 8.727 0 10-1.293 1.293l2.585 2.594a.917.917 0 001.302 0 .918.918 0 000-1.302zM3.668 10.541a6.875 6.875 0 1113.75 0 6.875 6.875 0 01-13.75 0z"/></svg><svg viewBox="0 0 18 18" id="twitter" xmlns="http://www.w3.org/2000/svg"><g clip-path="url(#ja)"><path d="M18 3.419a7.693 7.693 0 01-2.126.583 3.67 3.67 0 001.623-2.04c-.713.425-1.5.726-2.34.893a3.689 3.689 0 00-6.383 2.523c0 .293.025.574.085.842a10.445 10.445 0 01-7.606-3.86 3.715 3.715 0 00-.505 1.866c0 1.277.658 2.41 1.64 3.066A3.644 3.644 0 01.72 6.838v.04a3.707 3.707 0 002.957 3.626 3.68 3.68 0 01-.968.122 3.3 3.3 0 01-.699-.063 3.725 3.725 0 003.449 2.57 7.414 7.414 0 01-4.576 1.574c-.302 0-.593-.013-.883-.05a10.389 10.389 0 005.661 1.655c6.79 0 10.503-5.625 10.503-10.5 0-.163-.006-.32-.014-.477A7.362 7.362 0 0018 3.419z"/></g><defs><clipPath id="ja"><path d="M0 0h18v18H0z"/></clipPath></defs></svg><svg viewBox="0 0 18 18" id="youtube" xmlns="http://www.w3.org/2000/svg"><path d="M17.235 4.005c-.488-.869-1.018-1.028-2.097-1.089-1.078-.073-3.788-.103-6.136-.103-2.352 0-5.063.03-6.14.102-1.077.062-1.608.22-2.1 1.09C.259 4.872 0 6.366 0 8.997v.009c0 2.619.259 4.124.762 4.982.492.869 1.022 1.026 2.099 1.1 1.078.062 3.789.1 6.141.1 2.348 0 5.058-.038 6.137-.1 1.079-.073 1.609-.23 2.097-1.099.508-.858.764-2.363.764-4.982v-.009c0-2.632-.256-4.126-.765-4.993zM6.75 12.375v-6.75L12.375 9 6.75 12.375z"/></svg></svg>