<svg width="18" height="18" fill="none" xmlns="http://www.w3.org/2000/svg"><g clip-path="url(#clip0_15_231)"><path d="M18 3.419a7.693 7.693 0 01-2.126.583 3.67 3.67 0 001.623-2.04c-.713.425-1.5.726-2.34.893a3.689 3.689 0 00-6.383 2.523c0 .293.025.574.085.842a10.445 10.445 0 01-7.606-3.86 3.715 3.715 0 00-.505 1.866c0 1.277.658 2.41 1.64 3.066A3.644 3.644 0 01.72 6.838v.04a3.707 3.707 0 002.957 3.626 3.68 3.68 0 01-.968.122 3.3 3.3 0 01-.699-.063 3.725 3.725 0 003.449 2.57 7.414 7.414 0 01-4.576 1.574c-.302 0-.593-.013-.883-.05a10.389 10.389 0 005.661 1.655c6.79 0 10.503-5.625 10.503-10.5 0-.163-.006-.32-.014-.477A7.362 7.362 0 0018 3.419z" fill="#fff"/></g><defs><clipPath id="clip0_15_231"><path fill="#fff" d="M0 0h18v18H0z"/></clipPath></defs></svg>