<svg width="34" height="34" fill="none" xmlns="http://www.w3.org/2000/svg"><path d="M33.012 16.027l-3.118-.827-2.477-6.461a1.328 1.328 0 00-1.24-.853h-4.65V3.852c0-.734-.595-1.329-1.329-1.329H6.375a1.328 1.328 0 100 2.657H18.87v21.117h-6.356a3.858 3.858 0 00-3.616-2.524 3.856 3.856 0 00-3.851 3.852 3.856 3.856 0 003.851 3.852 3.858 3.858 0 003.616-2.524h11.495a3.858 3.858 0 003.616 2.524 3.858 3.858 0 003.616-2.524h1.43c.735 0 1.329-.594 1.329-1.328V17.311c0-.603-.405-1.13-.988-1.284zM8.898 28.82a1.196 1.196 0 11.001-2.389 1.196 1.196 0 01-.001 2.389zm12.628-18.278h3.737l2.393 6.243c.153.399.488.7.9.809l2.788.738v7.965h-.104a3.858 3.858 0 00-3.615-2.524 3.858 3.858 0 00-3.616 2.524h-2.483V10.542zm6.099 18.278a1.196 1.196 0 11.001-2.391 1.196 1.196 0 01-.001 2.391z" fill="#0D0D0D"/><path d="M3.01 10.758h3.365a1.328 1.328 0 100-2.656H3.01a1.328 1.328 0 100 2.656zm3.01 3.719c0-.734-.594-1.329-1.327-1.329H1.328a1.328 1.328 0 100 2.657h3.365c.733 0 1.328-.595 1.328-1.328zm1.683 5.046c0-.733-.594-1.328-1.328-1.328H3.01a1.328 1.328 0 100 2.657h3.365c.734 0 1.328-.595 1.328-1.329z" fill="#0D0D0D"/></svg>