<svg width="34" height="34" fill="none" xmlns="http://www.w3.org/2000/svg"><path d="M17.047 18.329a6.56 6.56 0 006.552-6.553 6.56 6.56 0 00-6.552-6.552 6.56 6.56 0 00-6.552 6.553 6.56 6.56 0 006.552 6.552zm0-10.448a3.9 3.9 0 013.896 3.896 3.9 3.9 0 01-3.896 3.895 3.9 3.9 0 01-3.896-3.896 3.9 3.9 0 013.896-3.895zm14.325 21.21l-3.838-11.96C31.514 9.37 25.869 0 17.047 0 8.221 0 2.583 9.375 6.56 17.131l-3.838 11.96c-.341 1.064.71 2.05 1.75 1.642l4.093-1.605 2.07 4.139c.488.977 1.887.978 2.376 0l4.036-8.072 4.036 8.072c.489.977 1.887.978 2.376 0l2.07-4.139 4.094 1.605c1.04.408 2.09-.579 1.75-1.643zM17.047 2.655c5.029 0 9.12 4.092 9.12 9.12 0 5.03-4.091 9.12-9.12 9.12-5.029 0-9.12-4.09-9.12-9.12 0-5.028 4.091-9.12 9.12-9.12zm-5.224 27.047l-1.424-2.848a1.328 1.328 0 00-1.673-.643l-2.62 1.027 2.373-7.393a11.766 11.766 0 006.51 3.526l-3.166 6.331zm13.545-3.49a1.328 1.328 0 00-1.673.642l-1.424 2.848-3.165-6.33a11.767 11.767 0 006.51-3.527l2.372 7.393-2.62-1.027z" fill="#0D0D0D"/><path d="M17.047 18.329a6.56 6.56 0 006.552-6.552 6.56 6.56 0 00-6.552-6.553 6.56 6.56 0 00-6.552 6.553 6.56 6.56 0 006.552 6.552zm0-10.448a3.9 3.9 0 013.896 3.896 3.9 3.9 0 01-3.896 3.896 3.9 3.9 0 01-3.896-3.896 3.9 3.9 0 013.896-3.896z" fill="#0D0D0D"/></svg>