<svg width="34" height="34" fill="none" xmlns="http://www.w3.org/2000/svg"><path d="M27.912 2.032C22.292-.06 22.562 0 22.224 0 11.093.002 11.747-.005 11.609.012c-.254.032-.076-.007-5.52 2.02A9.353 9.353 0 000 10.8V17c0 .734.595 1.328 1.328 1.328H5.34v14.344c0 .733.595 1.328 1.328 1.328h20.665c.734 0 1.328-.595 1.328-1.328V18.328h4.012c.733 0 1.328-.594 1.328-1.328v-6.2a9.353 9.353 0 00-6.088-8.768zm-7.616.625l-.154.402A3.382 3.382 0 0117 5.224a3.382 3.382 0 01-3.143-2.165l-.153-.402h6.592zm11.047 13.015H28.66v-3.896a1.328 1.328 0 10-2.656 0v19.568H7.995V11.776a1.328 1.328 0 10-2.656 0v3.896H2.656V10.8a6.73 6.73 0 014.36-6.278l3.989-1.487c.273.537.582 2.408 2.58 3.784a6.017 6.017 0 006.83 0c1.998-1.376 2.31-3.256 2.58-3.784l3.988 1.487a6.73 6.73 0 014.36 6.279v4.872z" fill="#0D0D0D"/></svg>