<svg version="1.0" xmlns="http://www.w3.org/2000/svg" width="346.667" height="346.667" viewBox="0 0 260 260"><path d="M0 130v130h260V0H0v130zm101.5-76.6c10.3 2.7 17.3 7.6 22.7 16.1 4.1 6.3 8.6 19.1 7.2 20.4-.5.5-5.3 1.7-10.8 2.9l-9.8 2-.6-2c-1.2-4.6-5.1-10.5-9-13.5-10.7-8.1-27.8-5.4-36.1 5.9-5.6 7.6-7.3 13.9-7.8 28.3-.7 19.5 2.8 32.7 11 41.3 9.9 10.4 26.4 10.1 40.5-.6 3.1-2.4 3.2-2.6 3.2-10.3V136H87v-22h46v52.6l-3.6 3c-6.3 5.1-15.7 10.4-22.4 12.6-8 2.6-23.4 3.5-31.3 1.8-18.8-3.9-33.5-20.3-39.3-44-2.6-10.5-2.6-32.5 0-43.5 5-21.5 17.7-37.2 34.4-42.6 7-2.2 23.3-2.5 30.7-.5zM226 65v11h-51v30l22.3.2 22.2.3.3 10.7.3 10.8H175v55h-22V54h73v11z"/></svg>