<?xml version="1.0" standalone="no"?>
<!DOCTYPE svg PUBLIC "-//W3C//DTD SVG 20010904//EN"
 "http://www.w3.org/TR/2001/REC-SVG-20010904/DTD/svg10.dtd">
<svg version="1.0" xmlns="http://www.w3.org/2000/svg"
 width="260.000000pt" height="260.000000pt" viewBox="0 0 260.000000 260.000000"
 preserveAspectRatio="xMidYMid meet">
<metadata>
Created by potrace 1.14, written by Peter Selinger 2001-2017
</metadata>
<g transform="translate(0.000000,260.000000) scale(0.100000,-0.100000)"
fill="#000000" stroke="none">
<path d="M0 1300 l0 -1300 1300 0 1300 0 0 1300 0 1300 -1300 0 -1300 0 0
-1300z m1015 766 c103 -27 173 -76 227 -161 41 -63 86 -191 72 -204 -5 -5 -53
-17 -108 -29 l-98 -20 -6 20 c-12 46 -51 105 -90 135 -107 81 -278 54 -361
-59 -56 -76 -73 -139 -78 -283 -7 -195 28 -327 110 -413 99 -104 264 -101 405
6 31 24 32 26 32 103 l0 79 -125 0 -125 0 0 110 0 110 230 0 230 0 0 -263 0
-263 -36 -30 c-63 -51 -157 -104 -224 -126 -80 -26 -234 -35 -313 -18 -188 39
-335 203 -393 440 -26 105 -26 325 0 435 50 215 177 372 344 426 70 22 233 25
307 5z m1245 -116 l0 -110 -255 0 -255 0 0 -150 0 -150 223 -2 222 -3 3 -107
3 -108 -226 0 -225 0 0 -275 0 -275 -110 0 -110 0 0 645 0 645 365 0 365 0 0
-110z"/>
</g>
</svg>
