<svg width="18" height="18" fill="none" xmlns="http://www.w3.org/2000/svg"><path d="M17.235 4.005c-.488-.869-1.018-1.028-2.097-1.089-1.078-.073-3.788-.103-6.136-.103-2.352 0-5.063.03-6.14.102-1.077.062-1.608.22-2.1 1.09C.259 4.872 0 6.366 0 8.997v.009c0 2.619.259 4.124.762 4.982.492.869 1.022 1.026 2.099 1.1 1.078.062 3.789.1 6.141.1 2.348 0 5.058-.038 6.137-.1 1.079-.073 1.609-.23 2.097-1.099.508-.858.764-2.363.764-4.982v-.01c0-2.632-.256-4.126-.765-4.993zM6.75 12.375v-6.75L12.375 9 6.75 12.375z" fill="#fff"/></svg>